<svg width="61" height="60" viewBox="0 0 61 60" fill="none" xmlns="http://www.w3.org/2000/svg">
<mask id="path-1-outside-1_3173_1202" maskUnits="userSpaceOnUse" x="3.95898" y="0.395996" width="53" height="59" fill="black">
<rect fill="white" x="3.95898" y="0.395996" width="53" height="59"/>
<path fill-rule="evenodd" clip-rule="evenodd" d="M9.85455 26.5723C7.38673 26.1229 7.75659 26.2177 5.84439 27.4073C3.96903 28.8526 5.53031 28.9881 6.35077 29.9869C4.84631 31.9081 6.92599 32.7304 8.40255 33.6912C11.2157 35.2073 11.1952 33.7924 12.6123 32.886C13.4868 35.8977 12.0293 38.7309 13.1393 41.8368C13.7696 43.7175 15.2242 45.2508 15.4801 47.2818C15.9193 50.4939 16.6163 50.5061 17.5761 52.0852C18.4561 53.7381 17.9973 57.4137 20.2352 58.4059C22.3614 59.2363 22.8493 56.9752 23.7059 56.3441C24.3672 55.7842 25.2909 55.3033 26.0074 54.6076C27.4629 53.2002 26.4388 52.5622 26.5831 51.326C27.2547 48.965 27.7429 49.0759 27.0746 47.0035C26.9184 46.4419 26.7338 45.9617 26.7189 45.4494C27.5656 44.0417 29.3534 44.1075 30.456 42.999C32.2758 41.1531 33.9008 39.1477 35.6472 37.2269C36.0941 36.7376 36.5122 36.2184 37.0978 35.8884C40.0148 33.8985 36.5316 33.9748 40.8566 32.491C41.3692 32.2423 41.8087 31.9104 42.1145 31.3893C43.3234 29.253 39.7057 25.0675 41.2241 23.7908C41.3612 23.6656 41.4409 23.6635 41.6073 23.7792C43.2388 25.5902 43.4467 25.4 45.3873 25.561C44.8039 26.6266 44.3499 28.2492 45.4517 29.3816C46.0462 29.7861 46.8929 29.4309 47.5569 29.3872C49.3074 33.5593 50.498 31.3973 50.3287 30.382C50.3069 29.4978 48.6775 27.8324 49.8252 27.3657C50.3201 27.2341 51.0269 27.2423 51.3892 26.8334C51.8587 26.2172 52.4776 24.6812 52.2091 24.0795C51.5305 22.5881 51.6824 22.7888 52.5734 21.6267C54.4354 19.5532 55.467 19.912 55.823 19.3581C57.0204 16.9907 51.5365 15.0405 49.7152 15.8358C49.0545 16.0761 48.418 16.6908 47.7874 17.3774C46.9756 18.3861 46.1853 19.0071 46.2576 20.2818C45.6459 20.4059 43.4029 20.6771 42.7576 20.7201C42.428 20.1403 42.3439 19.2817 41.7992 18.7993C41.1664 18.1042 39.3372 18.3368 39.1354 19.1922C38.8261 20.8462 40.2619 22.4062 37.5975 21.9815C36.5458 21.66 35.5187 20.9211 34.542 20.5758C31.4233 19.7686 31.1678 21.7136 28.5944 18.7651C28.2282 18.3939 27.7653 18.2061 27.0714 17.8151C28.2266 16.1449 28.7383 15.2639 26.7641 14.262C24.2578 12.9316 23.8949 12.533 24.8396 11.8588C27.385 10.2931 25.4012 9.3891 25.5174 8.11588C25.7332 7.4659 26.2377 7.01274 26.5898 6.43022C27.0391 5.7525 27.1694 5.05976 26.8907 4.49966C25.1313 1.69856 23.3718 5.22108 22.0978 4.20338C21.0551 3.65948 19.6254 2.42608 18.8527 1.96398C15.2279 0.333582 12.1503 2.45826 15.0421 5.23012C15.2907 5.62564 15.2142 5.88818 15.1926 6.44166C15.1196 7.64214 15.0452 8.88504 15.4831 9.9687C16.1209 11.1338 17.608 11.6579 16.8491 12.4414C16.3713 13.0131 15.6083 13.5951 15.1856 14.0943C14.0706 15.4405 13.9002 17.7354 12.4938 18.9221C11.5709 19.8038 10.309 18.977 9.18741 19.0749C7.32787 19.086 6.95565 21.3365 7.23137 21.8539C7.40947 22.3476 7.99101 22.6949 8.24571 23.0648C8.82651 23.9204 9.77369 25.5403 9.85455 26.5723ZM25.2001 10.3214C25.0795 10.5812 24.7873 10.7608 24.531 10.9315C21.0175 13.3326 26.7433 14.9596 27.102 15.6155C27.3234 16.1354 26.2854 17.1342 26.1959 17.4966C25.5144 18.5464 27.2183 18.8107 27.7444 19.265C28.3368 19.7534 28.8774 20.4902 29.5667 20.9301C31.1834 21.994 33.1243 20.8207 34.5652 21.5801C36.2556 22.4115 38.6313 24.0158 40.0279 22.1411C40.4719 21.3044 39.9582 20.3404 40.006 19.5231C40.8842 19.0091 41.3521 19.4847 41.5468 20.214C41.8037 21.0036 42.0945 21.7681 42.8567 21.6527C43.674 21.5913 46.3255 21.2508 46.6786 21.1414C46.9704 21.0494 47.1648 20.7586 47.1945 20.3959C47.2159 19.4972 47.2158 19.6352 47.5431 19.1738C48.2522 18.205 49.2446 16.9815 50.1349 16.6826C51.755 16.275 54.8816 17.4501 55.078 18.7758C53.5187 19.4025 53.0408 19.7866 51.8894 21.0055C49.372 23.8421 52.2852 23.4482 50.936 25.7438C50.7094 26.2416 50.7247 26.2681 50.2267 26.3376C46.5935 26.834 49.8257 30.3817 49.3909 30.7429C48.2808 29.3307 48.5253 28.6451 47.9036 28.4901C47.3545 28.3277 46.6835 28.6607 46.0644 28.6392C45.2201 27.5957 46.0783 26.3262 46.4351 25.5101C46.6481 25.113 46.4649 24.7468 46.1225 24.6458C42.5794 24.5068 43.8092 24.3547 42.0324 22.9484C41.2738 22.4312 40.3936 23.0363 40.0515 23.8603C39.7605 24.6619 39.9662 25.4102 40.172 26.165C41.6422 30.5197 42.4116 31.0614 39.1543 32.1571C38.542 32.4115 37.8469 32.7654 37.6232 33.4261C37.4445 34.0345 37.6084 34.4111 37.0612 34.7753C35.847 35.545 35.4622 36.0213 34.9648 36.5855C33.3739 38.3418 31.8873 40.1403 30.2693 41.8476C29.097 43.3864 26.5035 43.3287 25.8272 45.2046C25.7686 45.4626 25.7921 45.7982 25.8613 46.1255C26.8849 49.4876 26.3735 48.5209 25.6879 51.0283C25.39 52.5679 26.464 53.0401 25.2663 54.0253C24.5327 54.6754 23.5509 55.2075 22.9521 55.7595C22.052 56.6004 21.6993 58.251 20.3798 57.4219C19.0964 56.5185 19.091 53.2907 18.6735 52.2678C17.6784 50.0576 16.7665 50.1429 16.4892 47.6354C15.9149 43.5086 13.5333 42.9239 13.6406 38.7833C13.6106 36.4588 14.9913 28.7783 10.6061 33.3663C9.60493 33.6477 7.83753 32.194 7.42101 31.9447C6.05861 31.0369 7.17665 30.9544 7.34281 30.0241C7.30521 29.3152 6.40479 28.7995 6.02621 28.4599C8.66101 26.4244 8.12413 27.5905 10.131 27.4885C11.9424 27.2299 9.51589 23.2216 9.04981 22.5805C8.14689 21.5264 7.64107 21.4687 8.57483 20.2234C9.55943 19.6059 10.9515 20.5334 12.0688 20.2062C14.7728 19.3305 14.7605 15.5555 16.2383 14.3418C16.8172 13.7942 17.629 13.1286 17.9086 12.4767C18.1127 12.0598 18.0031 11.5237 17.6733 11.0739C17.2755 10.505 16.707 10.1588 16.3526 9.61916C15.5606 7.53562 16.7871 5.53696 15.5601 4.37984C13.4549 2.36344 16.3914 2.00696 17.9926 2.60282C18.9354 2.9666 20.1777 4.19586 21.4133 4.88692C23.4486 6.28856 24.5928 3.88262 25.6017 4.4324C27.251 5.49504 24.0837 7.117 24.5961 8.5968C24.7063 9.0535 25.1342 9.85076 25.2001 10.3214Z"/>
</mask>
<path fill-rule="evenodd" clip-rule="evenodd" d="M9.85455 26.5723C7.38673 26.1229 7.75659 26.2177 5.84439 27.4073C3.96903 28.8526 5.53031 28.9881 6.35077 29.9869C4.84631 31.9081 6.92599 32.7304 8.40255 33.6912C11.2157 35.2073 11.1952 33.7924 12.6123 32.886C13.4868 35.8977 12.0293 38.7309 13.1393 41.8368C13.7696 43.7175 15.2242 45.2508 15.4801 47.2818C15.9193 50.4939 16.6163 50.5061 17.5761 52.0852C18.4561 53.7381 17.9973 57.4137 20.2352 58.4059C22.3614 59.2363 22.8493 56.9752 23.7059 56.3441C24.3672 55.7842 25.2909 55.3033 26.0074 54.6076C27.4629 53.2002 26.4388 52.5622 26.5831 51.326C27.2547 48.965 27.7429 49.0759 27.0746 47.0035C26.9184 46.4419 26.7338 45.9617 26.7189 45.4494C27.5656 44.0417 29.3534 44.1075 30.456 42.999C32.2758 41.1531 33.9008 39.1477 35.6472 37.2269C36.0941 36.7376 36.5122 36.2184 37.0978 35.8884C40.0148 33.8985 36.5316 33.9748 40.8566 32.491C41.3692 32.2423 41.8087 31.9104 42.1145 31.3893C43.3234 29.253 39.7057 25.0675 41.2241 23.7908C41.3612 23.6656 41.4409 23.6635 41.6073 23.7792C43.2388 25.5902 43.4467 25.4 45.3873 25.561C44.8039 26.6266 44.3499 28.2492 45.4517 29.3816C46.0462 29.7861 46.8929 29.4309 47.5569 29.3872C49.3074 33.5593 50.498 31.3973 50.3287 30.382C50.3069 29.4978 48.6775 27.8324 49.8252 27.3657C50.3201 27.2341 51.0269 27.2423 51.3892 26.8334C51.8587 26.2172 52.4776 24.6812 52.2091 24.0795C51.5305 22.5881 51.6824 22.7888 52.5734 21.6267C54.4354 19.5532 55.467 19.912 55.823 19.3581C57.0204 16.9907 51.5365 15.0405 49.7152 15.8358C49.0545 16.0761 48.418 16.6908 47.7874 17.3774C46.9756 18.3861 46.1853 19.0071 46.2576 20.2818C45.6459 20.4059 43.4029 20.6771 42.7576 20.7201C42.428 20.1403 42.3439 19.2817 41.7992 18.7993C41.1664 18.1042 39.3372 18.3368 39.1354 19.1922C38.8261 20.8462 40.2619 22.4062 37.5975 21.9815C36.5458 21.66 35.5187 20.9211 34.542 20.5758C31.4233 19.7686 31.1678 21.7136 28.5944 18.7651C28.2282 18.3939 27.7653 18.2061 27.0714 17.8151C28.2266 16.1449 28.7383 15.2639 26.7641 14.262C24.2578 12.9316 23.8949 12.533 24.8396 11.8588C27.385 10.2931 25.4012 9.3891 25.5174 8.11588C25.7332 7.4659 26.2377 7.01274 26.5898 6.43022C27.0391 5.7525 27.1694 5.05976 26.8907 4.49966C25.1313 1.69856 23.3718 5.22108 22.0978 4.20338C21.0551 3.65948 19.6254 2.42608 18.8527 1.96398C15.2279 0.333582 12.1503 2.45826 15.0421 5.23012C15.2907 5.62564 15.2142 5.88818 15.1926 6.44166C15.1196 7.64214 15.0452 8.88504 15.4831 9.9687C16.1209 11.1338 17.608 11.6579 16.8491 12.4414C16.3713 13.0131 15.6083 13.5951 15.1856 14.0943C14.0706 15.4405 13.9002 17.7354 12.4938 18.9221C11.5709 19.8038 10.309 18.977 9.18741 19.0749C7.32787 19.086 6.95565 21.3365 7.23137 21.8539C7.40947 22.3476 7.99101 22.6949 8.24571 23.0648C8.82651 23.9204 9.77369 25.5403 9.85455 26.5723ZM25.2001 10.3214C25.0795 10.5812 24.7873 10.7608 24.531 10.9315C21.0175 13.3326 26.7433 14.9596 27.102 15.6155C27.3234 16.1354 26.2854 17.1342 26.1959 17.4966C25.5144 18.5464 27.2183 18.8107 27.7444 19.265C28.3368 19.7534 28.8774 20.4902 29.5667 20.9301C31.1834 21.994 33.1243 20.8207 34.5652 21.5801C36.2556 22.4115 38.6313 24.0158 40.0279 22.1411C40.4719 21.3044 39.9582 20.3404 40.006 19.5231C40.8842 19.0091 41.3521 19.4847 41.5468 20.214C41.8037 21.0036 42.0945 21.7681 42.8567 21.6527C43.674 21.5913 46.3255 21.2508 46.6786 21.1414C46.9704 21.0494 47.1648 20.7586 47.1945 20.3959C47.2159 19.4972 47.2158 19.6352 47.5431 19.1738C48.2522 18.205 49.2446 16.9815 50.1349 16.6826C51.755 16.275 54.8816 17.4501 55.078 18.7758C53.5187 19.4025 53.0408 19.7866 51.8894 21.0055C49.372 23.8421 52.2852 23.4482 50.936 25.7438C50.7094 26.2416 50.7247 26.2681 50.2267 26.3376C46.5935 26.834 49.8257 30.3817 49.3909 30.7429C48.2808 29.3307 48.5253 28.6451 47.9036 28.4901C47.3545 28.3277 46.6835 28.6607 46.0644 28.6392C45.2201 27.5957 46.0783 26.3262 46.4351 25.5101C46.6481 25.113 46.4649 24.7468 46.1225 24.6458C42.5794 24.5068 43.8092 24.3547 42.0324 22.9484C41.2738 22.4312 40.3936 23.0363 40.0515 23.8603C39.7605 24.6619 39.9662 25.4102 40.172 26.165C41.6422 30.5197 42.4116 31.0614 39.1543 32.1571C38.542 32.4115 37.8469 32.7654 37.6232 33.4261C37.4445 34.0345 37.6084 34.4111 37.0612 34.7753C35.847 35.545 35.4622 36.0213 34.9648 36.5855C33.3739 38.3418 31.8873 40.1403 30.2693 41.8476C29.097 43.3864 26.5035 43.3287 25.8272 45.2046C25.7686 45.4626 25.7921 45.7982 25.8613 46.1255C26.8849 49.4876 26.3735 48.5209 25.6879 51.0283C25.39 52.5679 26.464 53.0401 25.2663 54.0253C24.5327 54.6754 23.5509 55.2075 22.9521 55.7595C22.052 56.6004 21.6993 58.251 20.3798 57.4219C19.0964 56.5185 19.091 53.2907 18.6735 52.2678C17.6784 50.0576 16.7665 50.1429 16.4892 47.6354C15.9149 43.5086 13.5333 42.9239 13.6406 38.7833C13.6106 36.4588 14.9913 28.7783 10.6061 33.3663C9.60493 33.6477 7.83753 32.194 7.42101 31.9447C6.05861 31.0369 7.17665 30.9544 7.34281 30.0241C7.30521 29.3152 6.40479 28.7995 6.02621 28.4599C8.66101 26.4244 8.12413 27.5905 10.131 27.4885C11.9424 27.2299 9.51589 23.2216 9.04981 22.5805C8.14689 21.5264 7.64107 21.4687 8.57483 20.2234C9.55943 19.6059 10.9515 20.5334 12.0688 20.2062C14.7728 19.3305 14.7605 15.5555 16.2383 14.3418C16.8172 13.7942 17.629 13.1286 17.9086 12.4767C18.1127 12.0598 18.0031 11.5237 17.6733 11.0739C17.2755 10.505 16.707 10.1588 16.3526 9.61916C15.5606 7.53562 16.7871 5.53696 15.5601 4.37984C13.4549 2.36344 16.3914 2.00696 17.9926 2.60282C18.9354 2.9666 20.1777 4.19586 21.4133 4.88692C23.4486 6.28856 24.5928 3.88262 25.6017 4.4324C27.251 5.49504 24.0837 7.117 24.5961 8.5968C24.7063 9.0535 25.1342 9.85076 25.2001 10.3214Z" fill="white"/>
<path fill-rule="evenodd" clip-rule="evenodd" d="M9.85455 26.5723C7.38673 26.1229 7.75659 26.2177 5.84439 27.4073C3.96903 28.8526 5.53031 28.9881 6.35077 29.9869C4.84631 31.9081 6.92599 32.7304 8.40255 33.6912C11.2157 35.2073 11.1952 33.7924 12.6123 32.886C13.4868 35.8977 12.0293 38.7309 13.1393 41.8368C13.7696 43.7175 15.2242 45.2508 15.4801 47.2818C15.9193 50.4939 16.6163 50.5061 17.5761 52.0852C18.4561 53.7381 17.9973 57.4137 20.2352 58.4059C22.3614 59.2363 22.8493 56.9752 23.7059 56.3441C24.3672 55.7842 25.2909 55.3033 26.0074 54.6076C27.4629 53.2002 26.4388 52.5622 26.5831 51.326C27.2547 48.965 27.7429 49.0759 27.0746 47.0035C26.9184 46.4419 26.7338 45.9617 26.7189 45.4494C27.5656 44.0417 29.3534 44.1075 30.456 42.999C32.2758 41.1531 33.9008 39.1477 35.6472 37.2269C36.0941 36.7376 36.5122 36.2184 37.0978 35.8884C40.0148 33.8985 36.5316 33.9748 40.8566 32.491C41.3692 32.2423 41.8087 31.9104 42.1145 31.3893C43.3234 29.253 39.7057 25.0675 41.2241 23.7908C41.3612 23.6656 41.4409 23.6635 41.6073 23.7792C43.2388 25.5902 43.4467 25.4 45.3873 25.561C44.8039 26.6266 44.3499 28.2492 45.4517 29.3816C46.0462 29.7861 46.8929 29.4309 47.5569 29.3872C49.3074 33.5593 50.498 31.3973 50.3287 30.382C50.3069 29.4978 48.6775 27.8324 49.8252 27.3657C50.3201 27.2341 51.0269 27.2423 51.3892 26.8334C51.8587 26.2172 52.4776 24.6812 52.2091 24.0795C51.5305 22.5881 51.6824 22.7888 52.5734 21.6267C54.4354 19.5532 55.467 19.912 55.823 19.3581C57.0204 16.9907 51.5365 15.0405 49.7152 15.8358C49.0545 16.0761 48.418 16.6908 47.7874 17.3774C46.9756 18.3861 46.1853 19.0071 46.2576 20.2818C45.6459 20.4059 43.4029 20.6771 42.7576 20.7201C42.428 20.1403 42.3439 19.2817 41.7992 18.7993C41.1664 18.1042 39.3372 18.3368 39.1354 19.1922C38.8261 20.8462 40.2619 22.4062 37.5975 21.9815C36.5458 21.66 35.5187 20.9211 34.542 20.5758C31.4233 19.7686 31.1678 21.7136 28.5944 18.7651C28.2282 18.3939 27.7653 18.2061 27.0714 17.8151C28.2266 16.1449 28.7383 15.2639 26.7641 14.262C24.2578 12.9316 23.8949 12.533 24.8396 11.8588C27.385 10.2931 25.4012 9.3891 25.5174 8.11588C25.7332 7.4659 26.2377 7.01274 26.5898 6.43022C27.0391 5.7525 27.1694 5.05976 26.8907 4.49966C25.1313 1.69856 23.3718 5.22108 22.0978 4.20338C21.0551 3.65948 19.6254 2.42608 18.8527 1.96398C15.2279 0.333582 12.1503 2.45826 15.0421 5.23012C15.2907 5.62564 15.2142 5.88818 15.1926 6.44166C15.1196 7.64214 15.0452 8.88504 15.4831 9.9687C16.1209 11.1338 17.608 11.6579 16.8491 12.4414C16.3713 13.0131 15.6083 13.5951 15.1856 14.0943C14.0706 15.4405 13.9002 17.7354 12.4938 18.9221C11.5709 19.8038 10.309 18.977 9.18741 19.0749C7.32787 19.086 6.95565 21.3365 7.23137 21.8539C7.40947 22.3476 7.99101 22.6949 8.24571 23.0648C8.82651 23.9204 9.77369 25.5403 9.85455 26.5723ZM25.2001 10.3214C25.0795 10.5812 24.7873 10.7608 24.531 10.9315C21.0175 13.3326 26.7433 14.9596 27.102 15.6155C27.3234 16.1354 26.2854 17.1342 26.1959 17.4966C25.5144 18.5464 27.2183 18.8107 27.7444 19.265C28.3368 19.7534 28.8774 20.4902 29.5667 20.9301C31.1834 21.994 33.1243 20.8207 34.5652 21.5801C36.2556 22.4115 38.6313 24.0158 40.0279 22.1411C40.4719 21.3044 39.9582 20.3404 40.006 19.5231C40.8842 19.0091 41.3521 19.4847 41.5468 20.214C41.8037 21.0036 42.0945 21.7681 42.8567 21.6527C43.674 21.5913 46.3255 21.2508 46.6786 21.1414C46.9704 21.0494 47.1648 20.7586 47.1945 20.3959C47.2159 19.4972 47.2158 19.6352 47.5431 19.1738C48.2522 18.205 49.2446 16.9815 50.1349 16.6826C51.755 16.275 54.8816 17.4501 55.078 18.7758C53.5187 19.4025 53.0408 19.7866 51.8894 21.0055C49.372 23.8421 52.2852 23.4482 50.936 25.7438C50.7094 26.2416 50.7247 26.2681 50.2267 26.3376C46.5935 26.834 49.8257 30.3817 49.3909 30.7429C48.2808 29.3307 48.5253 28.6451 47.9036 28.4901C47.3545 28.3277 46.6835 28.6607 46.0644 28.6392C45.2201 27.5957 46.0783 26.3262 46.4351 25.5101C46.6481 25.113 46.4649 24.7468 46.1225 24.6458C42.5794 24.5068 43.8092 24.3547 42.0324 22.9484C41.2738 22.4312 40.3936 23.0363 40.0515 23.8603C39.7605 24.6619 39.9662 25.4102 40.172 26.165C41.6422 30.5197 42.4116 31.0614 39.1543 32.1571C38.542 32.4115 37.8469 32.7654 37.6232 33.4261C37.4445 34.0345 37.6084 34.4111 37.0612 34.7753C35.847 35.545 35.4622 36.0213 34.9648 36.5855C33.3739 38.3418 31.8873 40.1403 30.2693 41.8476C29.097 43.3864 26.5035 43.3287 25.8272 45.2046C25.7686 45.4626 25.7921 45.7982 25.8613 46.1255C26.8849 49.4876 26.3735 48.5209 25.6879 51.0283C25.39 52.5679 26.464 53.0401 25.2663 54.0253C24.5327 54.6754 23.5509 55.2075 22.9521 55.7595C22.052 56.6004 21.6993 58.251 20.3798 57.4219C19.0964 56.5185 19.091 53.2907 18.6735 52.2678C17.6784 50.0576 16.7665 50.1429 16.4892 47.6354C15.9149 43.5086 13.5333 42.9239 13.6406 38.7833C13.6106 36.4588 14.9913 28.7783 10.6061 33.3663C9.60493 33.6477 7.83753 32.194 7.42101 31.9447C6.05861 31.0369 7.17665 30.9544 7.34281 30.0241C7.30521 29.3152 6.40479 28.7995 6.02621 28.4599C8.66101 26.4244 8.12413 27.5905 10.131 27.4885C11.9424 27.2299 9.51589 23.2216 9.04981 22.5805C8.14689 21.5264 7.64107 21.4687 8.57483 20.2234C9.55943 19.6059 10.9515 20.5334 12.0688 20.2062C14.7728 19.3305 14.7605 15.5555 16.2383 14.3418C16.8172 13.7942 17.629 13.1286 17.9086 12.4767C18.1127 12.0598 18.0031 11.5237 17.6733 11.0739C17.2755 10.505 16.707 10.1588 16.3526 9.61916C15.5606 7.53562 16.7871 5.53696 15.5601 4.37984C13.4549 2.36344 16.3914 2.00696 17.9926 2.60282C18.9354 2.9666 20.1777 4.19586 21.4133 4.88692C23.4486 6.28856 24.5928 3.88262 25.6017 4.4324C27.251 5.49504 24.0837 7.117 24.5961 8.5968C24.7063 9.0535 25.1342 9.85076 25.2001 10.3214Z" stroke="white" stroke-width="0.4" mask="url(#path-1-outside-1_3173_1202)"/>
</svg>
