<svg width="131" height="130" viewBox="0 0 131 130" fill="none" xmlns="http://www.w3.org/2000/svg">
<path fill-rule="evenodd" clip-rule="evenodd" d="M101.745 27.6004C102.398 29.9443 101.777 31.6914 101.331 32.5584C102.134 33.4671 102.883 34.4219 103.579 35.4221C103.441 34.8764 103.325 34.3126 103.249 33.7475C102.825 30.4847 104.177 28.1541 104.203 28.1562C104.217 28.1193 107.128 31.5846 107.316 35.0298V35.0288C107.45 37.2139 106.619 38.7232 106.01 39.5279C106.564 40.6395 107.065 41.7951 107.512 42.9941C107.475 42.388 107.47 41.7634 107.515 41.1463C107.761 37.9541 109.568 35.9568 109.591 35.962C109.609 35.9272 111.732 39.7205 111.246 43.0645H111.247C110.916 45.4194 109.587 46.7741 108.853 47.3641C109.252 48.9851 109.561 50.6636 109.782 52.3971C109.821 51.3373 109.95 50.1307 110.263 48.988C111.109 45.9519 113.28 44.3437 113.301 44.3532C113.322 44.3215 114.681 48.3394 113.588 51.4936H113.587C112.694 54.1081 110.696 55.142 110.074 55.4178C110.219 57.6017 110.233 59.8649 110.116 62.2031L110.12 62.2703L110.124 62.329C110.271 61.0866 110.633 58.9245 111.539 57.0659C112.92 54.2639 115.362 53.0892 115.38 53.1008C115.404 53.0723 116.019 57.2125 114.387 60.0978H114.388C112.976 62.6152 110.661 63.2092 110.134 63.3254C110.132 63.3473 110.13 63.3579 110.129 63.3563C110.127 63.3576 110.106 63.3522 110.067 63.3397L110.048 63.3438C109.95 64.7919 109.802 66.2679 109.604 67.7707C109.544 68.2293 109.476 68.6859 109.402 69.1404C109.812 67.9663 110.457 66.4542 111.393 65.1797C113.242 62.6825 115.865 61.9728 115.881 61.9875C115.91 61.9622 115.802 66.1214 113.697 68.6639V68.665C111.973 70.7606 109.745 71.0296 109.045 71.0695C108.718 72.6389 108.309 74.1806 107.821 75.689C108.368 74.8284 109.056 73.9043 109.871 73.1279C112.122 70.9987 114.841 70.7741 114.855 70.791C114.887 70.7699 114.077 74.8437 111.564 76.9802C109.695 78.5784 107.668 78.6171 106.785 78.5463C106.258 79.8579 105.668 81.14 105.018 82.3885C105.609 81.7903 106.285 81.1967 107.021 80.7081C109.611 79.0039 112.342 79.2707 112.351 79.2886C112.386 79.2728 110.896 83.1589 108.039 84.8293H108.04C106.032 86.0117 104.121 85.7889 103.188 85.5686C102.477 86.6899 101.715 87.7782 100.903 88.8302C101.518 88.4154 102.19 88.0254 102.891 87.7209C105.759 86.4892 108.417 87.2432 108.424 87.2622C108.462 87.2516 106.314 90.8456 103.175 92.0003L103.174 92.0014C101.026 92.7982 99.2042 92.2878 98.2886 91.9051C97.3932 92.8631 96.4513 93.7827 95.4649 94.6608C96.1204 94.3792 96.8189 94.1316 97.5273 93.9639C100.612 93.2468 103.116 94.4701 103.121 94.4901C103.162 94.4859 100.376 97.6844 97.0164 98.2812C94.7286 98.6936 93.004 97.8724 92.1532 97.3279C91.0381 98.1386 89.8903 98.8904 88.7121 99.5821C89.4443 99.4113 90.2142 99.2829 90.9755 99.2399C94.2169 99.0701 96.4885 100.734 96.4917 100.756C96.5362 100.759 93.1326 103.458 89.6134 103.461V103.46C87.1583 103.468 85.5537 102.287 84.8215 101.598C83.3715 102.254 81.8834 102.826 80.3606 103.313L80.3236 103.324L80.3011 103.332C81.2672 103.251 82.3009 103.234 83.2873 103.349C86.6274 103.753 88.5894 105.817 88.5894 105.839C88.6371 105.85 84.6377 107.946 81.0168 107.326L81.0178 107.327C78.2274 106.856 76.8003 105.116 76.3059 104.382C74.1773 104.827 72.0277 105.095 69.8673 105.185L70.0924 105.35L65.3129 108.846L60.5323 105.35L60.7798 105.169C58.7382 105.065 56.7067 104.802 54.6941 104.382C54.1997 105.116 52.7725 106.856 49.9821 107.327L49.9832 107.326C46.3622 107.946 42.3628 105.85 42.4105 105.839C42.4105 105.817 44.3726 103.753 47.7126 103.349C48.699 103.234 49.7327 103.251 50.6989 103.332L50.6393 103.313C49.1166 102.826 47.6284 102.254 46.1785 101.598C45.4462 102.287 43.8416 103.468 41.3866 103.46V103.461C37.8674 103.458 34.4637 100.759 34.5082 100.756C34.5114 100.734 36.783 99.0701 40.0245 99.2399C40.7857 99.2829 41.5556 99.4113 42.2879 99.5821C41.1096 98.8904 39.9619 98.1386 38.8468 97.3279C37.996 97.8724 36.2714 98.6936 33.9835 98.2812C30.6244 97.6844 27.8377 94.4859 27.879 94.4901C27.8843 94.4701 30.388 93.2468 33.4726 93.9639C34.181 94.1316 34.8795 94.3792 35.5351 94.6608C34.5486 93.7828 33.6068 92.8631 32.7113 91.9051C31.7958 92.2878 29.9743 92.7982 27.826 92.0014L27.8249 92.0003C24.6863 90.8456 22.5377 87.2516 22.5758 87.2622C22.5832 87.2432 25.2407 86.4892 28.109 87.7209C28.8102 88.0254 29.4822 88.4154 30.0971 88.8302C29.2849 87.7782 28.5225 86.6899 27.8119 85.5686C26.8789 85.7889 24.968 86.0117 22.9595 84.8293H22.9606C20.1039 83.1589 18.6135 79.2728 18.6485 79.2886C18.6581 79.2707 21.3886 79.0039 23.9793 80.7081C24.7154 81.1967 25.3913 81.7903 25.9815 82.3885C25.3318 81.14 24.7421 79.8579 24.2145 78.5463C23.3322 78.6171 21.3051 78.5784 19.4361 76.9802C16.9228 74.8437 16.113 70.7699 16.1448 70.791C16.1586 70.7741 18.8775 70.9987 21.1289 73.1279C21.9435 73.9043 22.6319 74.8284 23.1789 75.6891C22.6906 74.1806 22.2816 72.6389 21.955 71.0695C21.2551 71.0296 19.0264 70.7607 17.3034 68.665C15.1982 66.1225 15.0901 61.9633 15.1187 61.9886C15.1346 61.9738 17.7581 62.6835 19.6068 65.1797C20.5425 66.4542 21.1877 67.9662 21.5975 69.1404C21.5235 68.6859 21.4563 68.2293 21.396 67.7707C21.1984 66.2679 21.0504 64.7919 20.952 63.3438L20.9332 63.3398C20.8943 63.3523 20.8726 63.3576 20.8713 63.3563C20.8699 63.3579 20.868 63.3473 20.866 63.3254C20.3385 63.2092 18.0238 62.6152 16.6123 60.0978H16.6133C14.9809 57.2125 15.5957 53.0723 15.6201 53.1008C15.6381 53.0892 18.0804 54.2639 19.4605 57.0659C20.3667 58.9245 20.7293 61.0866 20.876 62.329C20.8785 62.288 20.8813 62.246 20.8844 62.2031C20.7665 59.8649 20.7805 57.6017 20.926 55.4178C20.3043 55.142 18.306 54.1081 17.4126 51.4936H17.4115C16.3186 48.3394 17.6776 44.3215 17.6988 44.3532C17.72 44.3437 19.8908 45.9519 20.7367 48.988C21.0503 50.1307 21.1785 51.3373 21.2175 52.3971C21.4386 50.6636 21.7484 48.9851 22.1468 47.3641C21.4129 46.7741 20.0835 45.4194 19.753 43.0645H19.7541C19.2676 39.7205 21.3907 35.9272 21.4088 35.962C21.4321 35.9568 23.2394 37.9541 23.4853 41.1463C23.53 41.7634 23.5249 42.388 23.4878 42.9941C23.9345 41.7951 24.4354 40.6395 24.99 39.5279C24.3812 38.7232 23.5499 37.2139 23.6835 35.0288V35.0298C23.8722 31.5846 26.783 28.1193 26.7967 28.1562C26.8232 28.1541 28.1747 30.4847 27.7507 33.7475C27.6746 34.3126 27.5593 34.8764 27.4207 35.4221C28.1168 34.4219 28.8662 33.4671 29.6685 32.5584C29.2231 31.6914 28.6023 29.9443 29.2549 27.6004C30.1887 24.1499 33.9072 21.116 33.9168 21.1539C33.9464 21.155 34.7467 23.7534 33.585 26.992C33.1826 28.0957 32.6378 29.1655 32.0958 30.0959L31.6986 31.3376C32.7071 30.494 34.0748 29.5924 35.5937 29.2392C38.526 28.5511 40.5086 30.0639 40.7492 30.2475C40.7635 30.2584 40.7717 30.2646 40.7735 30.2654C40.767 30.2674 40.7236 30.3014 40.6474 30.3611L40.6473 30.3611C40.0857 30.801 37.748 32.6316 35.2587 33.351H35.2598C32.718 34.0765 30.5195 33.3385 30.0449 33.1468C30.0369 33.1579 30.0322 33.1648 30.0311 33.1675C30.0302 33.1641 30.0223 33.1521 30.0087 33.1319L30.0063 33.1309C28.7647 34.5568 27.6541 36.0972 26.6767 37.7493C26.4558 38.3297 26.2372 38.8385 26.0549 39.2407C26.7947 38.1442 28.2434 36.3623 30.1792 35.5581C32.8472 34.4422 35.0704 35.5465 35.3663 35.6934C35.3859 35.7032 35.3971 35.7087 35.3993 35.7091C35.3937 35.7122 35.3617 35.7486 35.3055 35.8127C34.8738 36.3045 33.0143 38.4228 30.7293 39.5222V39.5212C28.407 40.6292 26.1046 40.2921 25.6044 40.1883C25.5986 40.2007 25.5953 40.2083 25.5948 40.211C25.5932 40.208 25.5827 40.1976 25.5644 40.1797C25.5258 40.171 25.5052 40.165 25.5046 40.1634C25.5023 40.1642 25.5062 40.1534 25.5161 40.1322C25.4937 40.11 25.4669 40.083 25.4364 40.0514C24.8306 41.2903 24.292 42.5842 23.8213 43.9324C23.5448 44.7244 23.2923 45.5326 23.0639 46.3568C23.6268 45.1666 24.6579 43.4621 26.2265 42.4697C28.6039 40.9594 30.9885 41.6392 31.3182 41.7332C31.3408 41.7397 31.3541 41.7434 31.3565 41.7434C31.352 41.7472 31.3301 41.7843 31.2915 41.8495L31.2915 41.8496C30.9812 42.3751 29.5958 44.7212 27.5546 46.1744V46.1755C25.5756 47.574 23.3498 47.7008 22.717 47.6968C22.3436 49.2466 22.0519 50.8499 21.8421 52.5043C22.2509 51.5558 22.844 50.5553 23.6909 49.7894C25.7401 47.9279 28.2027 48.1666 28.5609 48.2014C28.5872 48.2039 28.6022 48.2054 28.6048 48.2048C28.6013 48.2091 28.588 48.2456 28.5646 48.3098C28.3672 48.8514 27.4516 51.3629 25.6922 53.1377V53.1366C24.246 54.5853 22.4508 55.1751 21.5628 55.3851C21.4741 56.6891 21.4328 58.0221 21.4392 59.3831C21.6862 58.6664 22.035 57.9486 22.526 57.3222C24.2178 55.1531 26.6892 54.9506 27.0551 54.9207L27.0707 54.9194L27.0777 54.9188L27.0844 54.9182L27.0931 54.9173L27.0977 54.9166L27.1007 54.9161C27.0982 54.9207 27.0919 54.957 27.0809 55.0207C26.9858 55.5716 26.5359 58.1771 25.0986 60.2264H25.0976C23.9936 61.791 22.4531 62.6782 21.5693 63.0836C21.6553 64.4146 21.7837 65.7698 21.9546 67.1484C22.0755 66.3845 22.2999 65.5993 22.6871 64.8823C23.9877 62.4603 26.3923 61.8208 26.7564 61.724C26.7847 61.7164 26.8007 61.7122 26.8029 61.7106C26.8015 61.7155 26.8016 61.7491 26.8018 61.8082C26.8034 62.345 26.8115 64.9859 25.7293 67.2677V67.2688C24.8401 69.13 23.3203 70.3181 22.5504 70.8237C22.8933 72.4943 23.3308 74.1332 23.8591 75.7335C23.7295 74.6669 23.7392 73.4316 24.1287 72.2821C25.0078 69.6662 27.2744 68.6078 27.6246 68.4443C27.6524 68.4313 27.6681 68.4239 27.6701 68.4219C27.6695 68.4269 27.6752 68.4596 27.6853 68.5171C27.7773 69.0432 28.2318 71.6395 27.544 74.0886H27.543C26.9202 76.2854 25.4047 77.8171 24.813 78.339C25.5738 80.2267 26.4653 82.0522 27.4806 83.8032C27.0037 82.6221 26.5476 80.9602 26.8052 79.3329C27.2312 76.588 29.2945 75.1364 29.6166 74.9099C29.6424 74.8917 29.6571 74.8814 29.6587 74.879C29.659 74.8841 29.6702 74.9156 29.69 74.9709C29.8701 75.4751 30.7576 77.9595 30.4961 80.5109C30.2361 82.9847 28.8145 84.878 28.4188 85.3447C29.6457 87.2673 31.0275 89.0907 32.5544 90.7972C31.7982 89.7438 30.706 87.8629 30.6721 85.8491C30.6147 83.0478 32.4085 81.2395 32.6905 80.9552C32.7134 80.9321 32.7263 80.9191 32.7275 80.9164C32.7287 80.9213 32.745 80.95 32.7737 81.0005C33.0376 81.4652 34.3492 83.7743 34.5453 86.3616H34.5443C34.732 88.9318 33.602 91.1144 33.3256 91.5798C33.3356 91.5896 33.3417 91.5951 33.3439 91.5962C33.3413 91.5968 33.3296 91.6034 33.309 91.6149L33.3068 91.6162C34.554 92.9384 35.8913 94.1854 37.3141 95.3485C37.653 95.6256 37.9954 95.8968 38.3412 96.1621C38.4139 96.2084 38.4835 96.2532 38.5499 96.2965C37.5937 95.3932 36.0943 93.6835 35.6848 91.6417C35.1164 88.8675 36.5708 86.7519 36.8041 86.4125C36.8234 86.3844 36.8343 86.3685 36.8351 86.3653C36.8373 86.3703 36.8594 86.3968 36.898 86.4432L36.8982 86.4434C37.2495 86.8654 38.9653 88.926 39.6471 91.4646V91.4656C40.3174 93.9957 39.6034 96.3744 39.4151 96.8862C39.4266 96.8938 39.4335 96.898 39.4357 96.8986C39.4354 96.8988 39.4351 96.899 39.4345 96.8993C39.4334 96.9001 39.4318 96.9014 39.4296 96.9031L39.4079 96.9208L39.3993 96.9279L39.3931 96.9437C41.3091 98.3217 43.322 99.5243 45.4199 100.545C44.263 99.7794 42.5592 98.3891 41.7989 96.5317C40.6954 93.8761 41.7409 91.5187 41.9171 91.1215C41.9324 91.0869 41.9412 91.0672 41.9413 91.0634C41.9447 91.0683 41.9726 91.0914 42.0214 91.1319C42.4581 91.494 44.5666 93.2424 45.7601 95.6522C46.9389 98.0517 46.7027 100.548 46.614 101.102C47.9867 101.716 49.3939 102.253 50.8322 102.713C51.3554 102.88 51.8803 103.036 52.4068 103.181C51.2046 102.558 49.8348 101.622 48.9687 100.329C47.307 97.8809 47.8875 95.3519 47.9889 94.9101L47.9969 94.8749C48.0009 94.8566 48.003 94.8458 48.0026 94.843C48.0075 94.8476 48.042 94.8666 48.102 94.8997C48.6281 95.1896 51.1125 96.5586 52.8409 98.7474C54.3574 100.683 54.7608 102.893 54.8521 103.771C57.0809 104.235 59.333 104.502 61.5964 104.572L65.3129 101.853L69.0414 104.581C71.4267 104.53 73.8002 104.26 76.1478 103.771C76.2391 102.893 76.6425 100.683 78.159 98.7474C79.8875 96.5586 82.3717 95.1896 82.8978 94.8998C82.9245 94.885 82.9461 94.8731 82.9624 94.864C82.9659 94.862 82.9691 94.8602 82.9721 94.8585C82.9823 94.8527 82.9896 94.8484 82.9938 94.8456C82.9955 94.8445 82.9967 94.8436 82.9973 94.843C82.9967 94.8472 83.0019 94.8701 83.0111 94.9101C83.1125 95.3519 83.693 97.8809 82.0312 100.329C81.1651 101.622 79.7953 102.558 78.5931 103.181C79.1196 103.036 79.6445 102.88 80.1677 102.713C81.6061 102.253 83.0132 101.716 84.386 101.102C84.2973 100.548 84.061 98.0517 85.2398 95.6522C86.4334 93.2424 88.5419 91.494 88.9785 91.1319C89.027 91.0917 89.0552 91.0682 89.0587 91.0634C89.0588 91.0672 89.0675 91.0869 89.0829 91.1215C89.259 91.5187 90.3045 93.8761 89.201 96.5317C88.4408 98.3891 86.7369 99.7794 85.58 100.545C87.6779 99.5243 89.6908 98.3217 91.6069 96.9437L91.6038 96.936L91.6006 96.9279L91.5921 96.9209L91.5916 96.9205C91.5755 96.9072 91.5663 96.8996 91.5642 96.8986L91.5654 96.8982L91.5664 96.8977L91.5682 96.8968L91.571 96.8951C91.5745 96.893 91.5791 96.89 91.5848 96.8862C91.3966 96.3744 90.6825 93.9957 91.3528 91.4656V91.4646C92.0347 88.926 93.7502 86.8656 94.1016 86.4436C94.1203 86.4211 94.1352 86.4032 94.1459 86.3902C94.1572 86.3763 94.1637 86.3679 94.1648 86.3653C94.1653 86.3671 94.1689 86.3729 94.1755 86.3827L94.1956 86.4121C94.4289 86.7516 95.8835 88.8674 95.3151 91.6417C94.9056 93.6835 93.4062 95.3932 92.45 96.2965C92.4839 96.2744 92.5185 96.252 92.554 96.2291C92.5882 96.2072 92.6231 96.1848 92.6588 96.1621C93.0045 95.8968 93.3469 95.6256 93.6859 95.3485C95.1086 94.1854 96.446 92.9384 97.6932 91.6162L97.6909 91.6149L97.6684 91.6024C97.6616 91.5987 97.6561 91.5962 97.6561 91.5962C97.6582 91.5951 97.6643 91.5896 97.6743 91.5798C97.398 91.1144 96.268 88.9318 96.4557 86.3616H96.4546C96.6507 83.7744 97.9623 81.4652 98.2263 81.0005C98.255 80.95 98.2713 80.9213 98.2724 80.9164L98.2728 80.917L98.2734 80.9178L98.2757 80.9206C98.2783 80.9235 98.2823 80.9277 98.2878 80.9332C98.2932 80.9388 98.3 80.9456 98.3081 80.9538L98.3094 80.9552C98.5915 81.2395 100.385 83.0478 100.328 85.8491C100.294 87.8629 99.2017 89.7438 98.4456 90.7972C99.9725 89.0907 101.354 87.2673 102.581 85.3447C102.185 84.878 100.764 82.9847 100.504 80.5109C100.242 77.9595 101.13 75.4751 101.31 74.9709L101.31 74.9705C101.317 74.9515 101.323 74.9353 101.327 74.922C101.336 74.8969 101.341 74.8823 101.341 74.879C101.343 74.8814 101.358 74.8917 101.383 74.9099C101.705 75.1364 103.769 76.588 104.195 79.3329C104.452 80.9602 103.996 82.6221 103.519 83.8032C104.535 82.0522 105.426 80.2267 106.187 78.339C105.595 77.8171 104.08 76.2854 103.457 74.0886H103.456C102.768 71.6396 103.223 69.0437 103.315 68.5174V68.5174C103.318 68.4988 103.321 68.4828 103.323 68.4694C103.325 68.4594 103.326 68.4509 103.327 68.4439C103.329 68.4315 103.33 68.4241 103.33 68.4219C103.332 68.4239 103.347 68.4312 103.375 68.4441L103.375 68.4442C103.726 68.6078 105.992 69.6662 106.871 72.2821C107.261 73.4316 107.27 74.6669 107.141 75.7335C107.669 74.1332 108.107 72.4943 108.45 70.8237C107.68 70.3181 106.16 69.13 105.271 67.2688V67.2677C104.188 64.9858 104.197 62.3449 104.198 61.8081C104.198 61.7491 104.198 61.7155 104.197 61.7106L104.198 61.711L104.199 61.7114L104.2 61.7118L104.201 61.7122L104.204 61.7131L104.207 61.7141C104.215 61.7164 104.227 61.7195 104.243 61.7237L104.244 61.724C104.608 61.8208 107.012 62.4603 108.313 64.8823C108.7 65.5993 108.924 66.3845 109.045 67.1484C109.216 65.7698 109.345 64.4146 109.431 63.0836C108.547 62.6782 107.006 61.791 105.902 60.2264H105.901C104.464 58.1771 104.014 55.5716 103.919 55.0207C103.908 54.9574 103.902 54.9207 103.899 54.9161C103.9 54.9166 103.905 54.9172 103.912 54.9179L103.945 54.9207C104.311 54.9506 106.782 55.1531 108.474 57.3222C108.965 57.9486 109.314 58.6663 109.561 59.3831C109.567 58.0221 109.526 56.6891 109.437 55.3851C108.549 55.1751 106.754 54.5853 105.308 53.1366V53.1377C103.548 51.3629 102.633 48.8515 102.435 48.3099C102.425 48.2821 102.417 48.2595 102.411 48.2424L102.404 48.2261C102.402 48.2195 102.4 48.2143 102.398 48.2107C102.397 48.2076 102.395 48.2048 102.395 48.2048C102.398 48.2054 102.413 48.2039 102.439 48.2014C102.797 48.1666 105.26 47.9279 107.309 49.7894C108.156 50.5553 108.749 51.5558 109.158 52.5043C108.948 50.8499 108.656 49.2466 108.283 47.6968C107.65 47.7008 105.424 47.574 103.445 46.1755V46.1744C101.404 44.7212 100.019 42.3752 99.7085 41.8498L99.708 41.8488C99.6697 41.784 99.648 41.7472 99.6435 41.7434C99.6459 41.7434 99.6588 41.7398 99.6815 41.7333C100.011 41.6393 102.396 40.9594 104.773 42.4697C106.342 43.4621 107.373 45.1666 107.936 46.3568C107.708 45.5326 107.455 44.7244 107.179 43.9324C106.708 42.5842 106.169 41.2903 105.564 40.0514C105.533 40.083 105.506 40.11 105.484 40.1322C105.489 40.1442 105.493 40.1529 105.495 40.158C105.496 40.1619 105.496 40.1638 105.495 40.1634C105.495 40.165 105.474 40.1709 105.435 40.1797C105.417 40.1976 105.407 40.208 105.405 40.211C105.405 40.211 105.405 40.2098 105.404 40.2081C105.404 40.2068 105.403 40.2052 105.402 40.2037L105.399 40.1961L105.396 40.1883C104.895 40.2921 102.593 40.6292 100.271 39.5212V39.5222C97.9857 38.4228 96.1262 36.3045 95.6945 35.8127C95.6384 35.7488 95.6062 35.7121 95.6006 35.7091C95.6019 35.7089 95.606 35.707 95.613 35.7036C95.6183 35.7011 95.6252 35.6977 95.6337 35.6934C95.9295 35.5465 98.1528 34.4422 100.821 35.5581C102.757 36.3623 104.205 38.1442 104.945 39.2406C104.763 38.8385 104.544 38.3297 104.323 37.7493C103.346 36.0972 102.235 34.5568 100.994 33.1309L100.991 33.1319C100.985 33.1418 100.979 33.1497 100.976 33.1556C100.972 33.1618 100.969 33.1658 100.969 33.1675L100.967 33.1641C100.965 33.1605 100.961 33.1547 100.955 33.1468C100.48 33.3385 98.2819 34.0765 95.7402 33.351H95.7412C93.2519 32.6316 90.9146 30.8012 90.353 30.3614L90.3519 30.3606C90.2761 30.3012 90.2329 30.2674 90.2264 30.2654C90.2273 30.265 90.2296 30.2634 90.2334 30.2606C90.2375 30.2576 90.2432 30.2532 90.2506 30.2475C90.4912 30.064 92.474 28.5511 95.4063 29.2392C96.9251 29.5924 98.2928 30.494 99.3014 31.3376L98.9042 30.0959C98.3621 29.1655 97.8174 28.0957 97.415 26.992C96.2532 23.7534 97.0535 21.155 97.0832 21.1539C97.0927 21.116 100.811 24.1499 101.745 27.6004ZM69.6734 50.8584C70.1842 51.1415 70.7657 51.283 71.418 51.283C72.378 51.283 73.1842 50.963 73.8365 50.323L73.2457 49.723C73.0119 49.9507 72.738 50.1291 72.4242 50.2584C72.1103 50.3815 71.7842 50.443 71.4457 50.443C70.9596 50.443 70.5288 50.3384 70.1534 50.1291C69.778 49.9138 69.4857 49.6153 69.2765 49.2338C69.0673 48.8522 68.9627 48.4153 68.9627 47.923C68.9627 47.4307 69.0673 46.9938 69.2765 46.6122C69.4857 46.2307 69.778 45.9353 70.1534 45.7261C70.5288 45.5107 70.9596 45.403 71.4457 45.403C72.1473 45.403 72.7257 45.6399 73.1811 46.1138L73.7996 45.5599C73.4796 45.2338 73.1165 44.9876 72.7103 44.8214C72.3103 44.6491 71.8796 44.563 71.418 44.563C70.7657 44.563 70.1842 44.7076 69.6734 44.9968C69.1688 45.2799 68.7719 45.6768 68.4826 46.1876C68.1996 46.6984 68.058 47.2768 68.058 47.923C68.058 48.5691 68.1996 49.1476 68.4826 49.6584C68.7719 50.1691 69.1688 50.5691 69.6734 50.8584ZM53.0105 51.0245C53.4844 51.1907 53.9705 51.2738 54.469 51.2738C54.9921 51.2738 55.4474 51.1968 55.8351 51.043C56.229 50.883 56.5336 50.6584 56.749 50.3691C56.9644 50.0738 57.072 49.7353 57.072 49.3538C57.072 48.9907 56.9859 48.6891 56.8136 48.4491C56.6413 48.203 56.3674 48.003 55.9921 47.8491C55.6228 47.6891 55.1244 47.5599 54.4967 47.4615C53.8997 47.363 53.469 47.2307 53.2044 47.0645C52.9459 46.8984 52.8167 46.6707 52.8167 46.3815C52.8167 46.0861 52.9644 45.843 53.2597 45.6522C53.5551 45.4615 53.9336 45.3661 54.3951 45.3661C54.7336 45.3661 55.069 45.4245 55.4013 45.5415C55.7336 45.6584 56.029 45.8245 56.2874 46.0399L56.7582 45.403C56.432 45.1384 56.0628 44.9353 55.6505 44.7938C55.2444 44.6461 54.8228 44.5722 54.3859 44.5722C53.912 44.5722 53.4874 44.6491 53.112 44.803C52.7367 44.9568 52.4444 45.1691 52.2351 45.4399C52.0259 45.7107 51.9213 46.0184 51.9213 46.363C51.9213 46.9168 52.1151 47.3445 52.5028 47.6461C52.8905 47.9476 53.5244 48.163 54.4044 48.2922C55.0259 48.3845 55.4751 48.5168 55.752 48.6891C56.029 48.8553 56.1674 49.0861 56.1674 49.3815C56.1674 49.7015 56.0136 49.9599 55.7059 50.1568C55.3982 50.3476 54.9859 50.443 54.469 50.443C54.0505 50.443 53.6413 50.3722 53.2413 50.2307C52.8413 50.083 52.5121 49.8861 52.2536 49.6399L51.7736 50.323C52.1305 50.6245 52.5428 50.8584 53.0105 51.0245ZM59.3357 44.6922H58.4403V51.1538H59.3357V44.6922ZM65.7173 44.6922H66.6127V51.1538H65.7912L62.0804 46.2245V51.1538H61.185V44.6922H62.0065L65.7173 49.6122V44.6922ZM76.0434 50.3138H79.8834V51.1538H75.148V44.6922H79.828V45.523H76.0434V47.4707H79.6618V48.2922H76.0434V50.3138ZM75.7662 67.9705C76.5508 68.3243 77.1662 68.8474 77.6123 69.5397C78.0739 70.232 78.3046 71.0089 78.3046 71.8705C78.3046 72.8397 78.02 73.6859 77.4508 74.4089C76.8969 75.132 76.1123 75.6936 75.0969 76.0936C74.0815 76.4936 72.8969 76.6936 71.5431 76.6936C70.1892 76.6936 68.9969 76.4936 67.9662 76.0936C66.9508 75.6936 66.1585 75.132 65.5892 74.4089C65.0354 73.6705 64.7585 72.8243 64.7585 71.8705C64.7585 71.0089 64.9815 70.232 65.4277 69.5397C65.8892 68.8474 66.5123 68.3243 67.2969 67.9705C66.6354 67.6166 66.1123 67.1397 65.7277 66.5397C65.3585 65.9397 65.1739 65.2551 65.1739 64.4859C65.1739 63.5936 65.4354 62.8089 65.9585 62.132C66.4969 61.4397 67.2431 60.9013 68.1969 60.5166C69.1662 60.132 70.2815 59.9397 71.5431 59.9397C72.7892 59.9397 73.8892 60.132 74.8431 60.5166C75.8123 60.9013 76.5585 61.4397 77.0815 62.132C77.62 62.8089 77.8892 63.5936 77.8892 64.4859C77.8892 65.2551 77.6969 65.9397 77.3123 66.5397C76.9431 67.1243 76.4277 67.6013 75.7662 67.9705ZM71.5431 62.2474C70.4354 62.2474 69.5431 62.4705 68.8662 62.9166C68.1892 63.3628 67.8508 63.9474 67.8508 64.6705C67.8508 65.3936 68.1892 65.9782 68.8662 66.4243C69.5431 66.8705 70.4354 67.0936 71.5431 67.0936C72.6354 67.0936 73.52 66.8705 74.1969 66.4243C74.8892 65.9782 75.2354 65.3936 75.2354 64.6705C75.2354 63.9474 74.8892 63.3628 74.1969 62.9166C73.52 62.4705 72.6354 62.2474 71.5431 62.2474ZM71.5431 74.2474C72.7739 74.2474 73.7508 74.0243 74.4739 73.5782C75.1969 73.1166 75.5585 72.4936 75.5585 71.709C75.5585 70.9397 75.1892 70.3243 74.4508 69.8628C73.7277 69.4013 72.7585 69.1705 71.5431 69.1705C70.3123 69.1705 69.3277 69.4013 68.5892 69.8628C67.8662 70.3243 67.5046 70.9397 67.5046 71.709C67.5046 72.4936 67.8662 73.1166 68.5892 73.5782C69.3277 74.0243 70.3123 74.2474 71.5431 74.2474ZM58.4233 60.6551C57.4079 60.1936 56.2618 59.9628 54.9848 59.9628C53.6925 59.9628 52.5387 60.1859 51.5233 60.632C50.5233 61.0782 49.7387 61.7089 49.1695 62.5243C48.6156 63.3243 48.3387 64.2397 48.3387 65.2705C48.3387 66.3013 48.6002 67.2166 49.1233 68.0166C49.6618 68.8013 50.4079 69.4166 51.3618 69.8628C52.3156 70.2936 53.4079 70.5089 54.6387 70.5089C56.331 70.5089 57.7618 70.0397 58.931 69.1013V70.9474C58.931 71.932 58.5618 72.709 57.8233 73.2782C57.0848 73.832 56.1618 74.1089 55.0541 74.1089C54.331 74.1089 53.6772 74.0166 53.0925 73.832C52.5079 73.632 52.0464 73.3705 51.7079 73.0474C51.3695 72.7089 51.2002 72.332 51.2002 71.9166H48.4772C48.5387 73.3936 49.1464 74.5474 50.3002 75.3782C51.4695 76.209 53.0618 76.6243 55.0772 76.6243C56.3695 76.6243 57.5079 76.4013 58.4925 75.9551C59.4925 75.5089 60.2695 74.8705 60.8233 74.0397C61.3772 73.1936 61.6541 72.209 61.6541 71.0859V65.2936C61.6541 64.2628 61.3695 63.3474 60.8002 62.5474C60.231 61.732 59.4387 61.1013 58.4233 60.6551ZM57.8464 67.3474C57.1233 67.8551 56.1772 68.1089 55.0079 68.1089C53.8233 68.1089 52.8695 67.8551 52.1464 67.3474C51.4233 66.8243 51.0618 66.1397 51.0618 65.2936C51.0618 64.4474 51.4233 63.7628 52.1464 63.2397C52.8695 62.7166 53.8233 62.4551 55.0079 62.4551C56.1925 62.4551 57.1387 62.7166 57.8464 63.2397C58.5695 63.7628 58.931 64.4474 58.931 65.2936C58.931 66.1397 58.5695 66.8243 57.8464 67.3474ZM46.2282 73.8782H43.459V60.1474H43.1359L37.9898 61.8089V64.3013L40.7359 63.4243V73.8782H37.6436V76.3936H46.2282V73.8782ZM93.9843 69.5397C93.5382 68.8474 92.9228 68.3243 92.1382 67.9705C92.7997 67.6013 93.3151 67.1243 93.6843 66.5397C94.0689 65.9397 94.2612 65.2551 94.2612 64.4859C94.2612 63.5936 93.992 62.8089 93.4535 62.132C92.9305 61.4397 92.1843 60.9013 91.2151 60.5166C90.2612 60.132 89.1612 59.9397 87.9151 59.9397C86.6535 59.9397 85.5382 60.132 84.5689 60.5166C83.6151 60.9013 82.8689 61.4397 82.3305 62.132C81.8074 62.8089 81.5458 63.5936 81.5458 64.4859C81.5458 65.2551 81.7305 65.9397 82.0997 66.5397C82.4843 67.1397 83.0074 67.6166 83.6689 67.9705C82.8843 68.3243 82.2612 68.8474 81.7997 69.5397C81.3535 70.232 81.1305 71.0089 81.1305 71.8705C81.1305 72.8243 81.4074 73.6705 81.9612 74.4089C82.5305 75.132 83.3228 75.6936 84.3382 76.0936C85.3689 76.4936 86.5612 76.6936 87.9151 76.6936C89.2689 76.6936 90.4535 76.4936 91.4689 76.0936C92.4843 75.6936 93.2689 75.132 93.8228 74.4089C94.392 73.6859 94.6766 72.8397 94.6766 71.8705C94.6766 71.0089 94.4458 70.232 93.9843 69.5397ZM85.2382 62.9166C85.9151 62.4705 86.8074 62.2474 87.9151 62.2474C89.0074 62.2474 89.892 62.4705 90.5689 62.9166C91.2612 63.3628 91.6074 63.9474 91.6074 64.6705C91.6074 65.3936 91.2612 65.9782 90.5689 66.4243C89.892 66.8705 89.0074 67.0936 87.9151 67.0936C86.8074 67.0936 85.9151 66.8705 85.2382 66.4243C84.5612 65.9782 84.2228 65.3936 84.2228 64.6705C84.2228 63.9474 84.5612 63.3628 85.2382 62.9166ZM90.8458 73.5782C90.1228 74.0243 89.1458 74.2474 87.9151 74.2474C86.6843 74.2474 85.6997 74.0243 84.9612 73.5782C84.2382 73.1166 83.8766 72.4936 83.8766 71.709C83.8766 70.9397 84.2382 70.3243 84.9612 69.8628C85.6997 69.4013 86.6843 69.1705 87.9151 69.1705C89.1305 69.1705 90.0997 69.4013 90.8228 69.8628C91.5612 70.3243 91.9305 70.9397 91.9305 71.709C91.9305 72.4936 91.5689 73.1166 90.8458 73.5782Z" fill="#2A3138"/>
</svg>
