<svg xmlns="http://www.w3.org/2000/svg" fill="none" viewBox="0 0 62 58" height="58" width="62">
<path stroke-linejoin="round" stroke-linecap="round" stroke-miterlimit="10" stroke-width="1.3" stroke="white" d="M49.6062 1.79871C47.9619 1.26396 46.2429 0.994449 44.5139 1.00029C39.407 1.01614 34.8485 3.36091 31.8445 7.02787C28.8405 3.36091 24.282 1.01614 19.1752 1.00029C10.1888 0.973462 2.7839 8.27348 2.68987 17.2597C2.64219 21.8464 4.4739 26.0056 7.46086 29.0145L18.9274 39.9009C19.3142 39.832 19.7066 39.7985 20.0996 39.8007H31.394C33.4064 39.8082 35.0317 41.464 35.0317 43.4728V43.4862C35.0268 44.6121 34.5126 45.6159 33.7117 46.2827L35.0219 45.8125L41.1728 43.2664L56.2135 29.0291C59.2078 26.0214 61.0444 21.8599 60.9992 17.2695C60.9657 13.8937 59.9004 10.7553 58.107 8.15348"></path>
<path stroke-linejoin="round" stroke-linecap="round" stroke-miterlimit="10" stroke-width="1.3" stroke="white" d="M24.5354 19.2827L27.3621 11.907C27.4199 11.7666 27.6198 11.7664 27.6778 11.9067L30.479 19.2827"></path>
<path stroke-linejoin="round" stroke-linecap="round" stroke-miterlimit="10" stroke-width="1.3" stroke="white" d="M25.4172 17.4458H29.6119"></path>
<path stroke-linejoin="round" stroke-linecap="round" stroke-miterlimit="10" stroke-width="1.3" stroke="white" d="M27.355 30.7788L30.1817 23.4032C30.2395 23.2627 30.4394 23.2626 30.4974 23.4028L33.2985 30.7788"></path>
<path stroke-linejoin="round" stroke-linecap="round" stroke-miterlimit="10" stroke-width="1.3" stroke="white" d="M28.2366 28.9414H32.4312"></path>
<path stroke-linejoin="round" stroke-linecap="round" stroke-miterlimit="10" stroke-width="1.3" stroke="white" d="M34.3149 19.2827V11.8156L39.3951 19.1261C39.4892 19.2613 39.5901 19.195 39.5901 19.0306L39.5198 11.8016"></path>
<path stroke-linejoin="round" stroke-linecap="round" stroke-miterlimit="10" stroke-width="1.3" stroke="white" d="M15.9211 30.7199L17.2443 23.4348C17.2774 23.264 17.5168 23.2481 17.5725 23.4128L19.7249 30.6631C19.7771 30.8176 19.9973 30.8164 20.0479 30.6615L22.1269 23.414C22.1808 23.2488 22.4203 23.2623 22.4552 23.4325L23.8566 30.7199"></path>
<path stroke-linejoin="round" stroke-linecap="round" stroke-miterlimit="10" stroke-width="1.3" stroke="white" d="M16.1743 11.8021V19.2832"></path>
<path stroke-linejoin="round" stroke-linecap="round" stroke-miterlimit="10" stroke-width="1.3" stroke="white" d="M20.8369 11.8021V19.2832"></path>
<path stroke-linejoin="round" stroke-linecap="round" stroke-miterlimit="10" stroke-width="1.3" stroke="white" d="M16.1743 15.4141H20.8368"></path>
<path stroke-linejoin="round" stroke-linecap="round" stroke-miterlimit="10" stroke-width="1.3" stroke="white" d="M47.9073 23.3318H45.448V30.7446H47.9073"></path>
<path stroke-linejoin="round" stroke-linecap="round" stroke-miterlimit="10" stroke-width="1.3" stroke="white" d="M47.8123 27.0381H45.448"></path>
<path stroke-linejoin="round" stroke-linecap="round" stroke-miterlimit="10" stroke-width="1.3" stroke="white" d="M43.9031 11.9198V19.0542"></path>
<path stroke-linejoin="round" stroke-linecap="round" stroke-miterlimit="10" stroke-width="1.3" stroke="white" d="M48.9222 15.5424C48.9222 17.5427 47.805 19.1255 46.0327 19.1564C45.4427 19.1666 43.918 19.1724 43.918 19.1724C43.918 19.1724 43.9084 16.5427 43.9084 15.5344C43.9084 14.7064 43.9031 11.9125 43.9031 11.9125H45.9721C47.9161 11.9125 48.9222 13.5421 48.9222 15.5424Z"></path>
<path stroke-linejoin="round" stroke-linecap="round" stroke-miterlimit="10" stroke-width="1.3" stroke="white" d="M36.9973 23.4154V30.5498"></path>
<path stroke-linejoin="round" stroke-linecap="round" stroke-miterlimit="10" stroke-width="1.3" stroke="white" d="M42.0165 27.0381C42.0165 29.0383 40.8993 30.6213 39.127 30.652C38.537 30.6622 37.0122 30.668 37.0122 30.668C37.0122 30.668 37.0027 28.0383 37.0027 27.0302C37.0027 26.202 36.9973 23.4081 36.9973 23.4081H39.0663C41.0104 23.4081 42.0165 25.0377 42.0165 27.0381Z"></path>
<path stroke-linejoin="round" stroke-linecap="round" stroke-miterlimit="10" stroke-width="1.3" stroke="white" d="M1 45.0375L9.25526 46.1009C9.74497 46.164 10.2426 46.1149 10.7106 45.9573C11.1785 45.7998 11.6045 45.5379 11.9564 45.1915L15.5703 41.6336C16.7747 40.4384 18.4036 39.7921 20.1 39.8004H31.3943C33.4063 39.8072 35.0319 41.463 35.0319 43.4726V43.4854C35.0273 44.6121 34.5132 45.6156 33.7114 46.2817L35.0214 45.8119L47.2939 40.732C49.8768 39.6773 52.7021 41.578 52.7021 44.3649V44.3799C52.6994 45.1511 52.4695 45.9043 52.0411 46.5455C51.6126 47.1867 51.0047 47.6874 50.2933 47.985L33.0698 55.2693C30.8026 56.2188 28.3677 56.7034 25.9097 56.6942H1"></path>
<path stroke-linejoin="round" stroke-linecap="round" stroke-miterlimit="10" stroke-width="1.3" stroke="white" d="M33.7111 46.2821C33.7111 46.2821 32.7079 47.1201 31.5235 47.1201H22.7336"></path>
<circle fill="white" r="1.5" cy="4.5" cx="54.5"></circle>
</svg>
