<svg width="60" height="60" viewBox="0 0 60 60" fill="none" xmlns="http://www.w3.org/2000/svg">
<path d="M42.0132 36.8372C41.7866 36.8383 41.5669 36.7588 41.3934 36.613L34.1803 30.7712C34.0668 30.6772 33.9755 30.5593 33.9128 30.426C33.8502 30.2926 33.8176 30.1471 33.8176 29.9998V13.8459C33.8176 13.5836 33.9218 13.3321 34.1073 13.1466C34.2928 12.9611 34.5443 12.8569 34.8066 12.8569C35.0689 12.8569 35.3205 12.9611 35.506 13.1466C35.6914 13.3321 35.7956 13.5836 35.7956 13.8459V29.5317L42.6396 35.0767C42.8024 35.207 42.9199 35.3853 42.9753 35.5863C43.0306 35.7873 43.0211 36.0007 42.948 36.1959C42.8748 36.3911 42.7419 36.5583 42.5681 36.6734C42.3943 36.7886 42.1886 36.8459 41.9803 36.8372H42.0132ZM24.877 40.7998H13.8462C13.5839 40.7998 13.3323 40.6956 13.1469 40.5101C12.9614 40.3246 12.8572 40.0731 12.8572 39.8108C12.8572 39.5485 12.9614 39.2969 13.1469 39.1114C13.3323 38.926 13.5839 38.8218 13.8462 38.8218H24.877C25.1393 38.8218 25.3908 38.926 25.5763 39.1114C25.7618 39.2969 25.866 39.5485 25.866 39.8108C25.866 40.0731 25.7618 40.3246 25.5763 40.5101C25.3908 40.6956 25.1393 40.7998 24.877 40.7998ZM20.4 30.1844H1.8396C1.57729 30.1844 1.32574 30.0802 1.14026 29.8947C0.954785 29.7093 0.850586 29.4577 0.850586 29.1954C0.850586 28.9331 0.954785 28.6815 1.14026 28.4961C1.32574 28.3106 1.57729 28.2064 1.8396 28.2064H20.4C20.6623 28.2064 20.9139 28.3106 21.0994 28.4961C21.2848 28.6815 21.389 28.9331 21.389 29.1954C21.389 29.4577 21.2848 29.7093 21.0994 29.8947C20.9139 30.0802 20.6623 30.1844 20.4 30.1844ZM13.3385 19.4503H6.74509C6.48279 19.4503 6.23123 19.3461 6.04576 19.1607C5.86028 18.9752 5.75608 18.7236 5.75608 18.4613C5.75608 18.199 5.86028 17.9475 6.04576 17.762C6.23123 17.5765 6.48279 17.4723 6.74509 17.4723H13.3385C13.6008 17.4723 13.8524 17.5765 14.0378 17.762C14.2233 17.9475 14.3275 18.199 14.3275 18.4613C14.3275 18.7236 14.2233 18.9752 14.0378 19.1607C13.8524 19.3461 13.6008 19.4503 13.3385 19.4503ZM34.8066 48.791C34.5443 48.791 34.2928 48.6868 34.1073 48.5013C33.9218 48.3159 33.8176 48.0643 33.8176 47.802V47.6042C33.8176 47.3419 33.9218 47.0903 34.1073 46.9049C34.2928 46.7194 34.5443 46.6152 34.8066 46.6152C35.0689 46.6152 35.3205 46.7194 35.506 46.9049C35.6914 47.0903 35.7956 47.3419 35.7956 47.6042V47.802C35.7956 48.0643 35.6914 48.3159 35.506 48.5013C35.3205 48.6868 35.0689 48.791 34.8066 48.791ZM53.2286 30.9888H53.0308C52.7685 30.9888 52.5169 30.8846 52.3315 30.6991C52.146 30.5137 52.0418 30.2621 52.0418 29.9998C52.0418 29.7375 52.146 29.4859 52.3315 29.3005C52.5169 29.115 52.7685 29.0108 53.0308 29.0108H53.2286C53.4909 29.0108 53.7425 29.115 53.9279 29.3005C54.1134 29.4859 54.2176 29.7375 54.2176 29.9998C54.2176 30.2621 54.1134 30.5137 53.9279 30.6991C53.7425 30.8846 53.4909 30.9888 53.2286 30.9888Z" fill="white"/>
<path d="M11.7429 34.1932C11.5048 34.1938 11.2746 34.1079 11.0951 33.9514C10.9156 33.795 10.799 33.5786 10.767 33.3427C10.615 32.235 10.5423 31.1179 10.5495 29.9998C10.5495 29.7375 10.6537 29.486 10.8391 29.3005C11.0246 29.115 11.2762 29.0108 11.5385 29.0108C11.8008 29.0108 12.0523 29.115 12.2378 29.3005C12.4233 29.486 12.5275 29.7375 12.5275 29.9998C12.5276 31.0254 12.5981 32.0498 12.7385 33.0658C12.756 33.1963 12.7472 33.329 12.7127 33.4561C12.6782 33.5832 12.6187 33.7022 12.5377 33.806C12.4566 33.9097 12.3556 33.9963 12.2406 34.0605C12.1257 34.1248 11.999 34.1654 11.8681 34.18L11.7429 34.1932ZM34.8066 54.2702C31.5446 54.2816 28.3144 53.6301 25.3119 52.355C22.3095 51.0799 19.5975 49.2078 17.3407 46.8526C17.1902 46.6591 17.1169 46.4167 17.135 46.1722C17.1531 45.9278 17.2614 45.6988 17.4387 45.5296C17.6161 45.3605 17.85 45.2632 18.095 45.2567C18.34 45.2502 18.5787 45.3349 18.7648 45.4943C20.8379 47.6562 23.3291 49.3736 26.0869 50.5423C28.8447 51.7109 31.8114 52.3063 34.8066 52.2921C38.7799 52.291 42.6806 51.228 46.1051 49.2131C49.5296 47.1981 52.3533 44.3046 54.284 40.8319C56.2146 37.3592 57.182 33.4337 57.0861 29.4615C56.9902 25.4894 55.8343 21.6152 53.7383 18.2397C51.6422 14.8643 48.6821 12.1105 45.1643 10.2632C41.6466 8.41599 37.699 7.54251 33.7303 7.73321C29.7617 7.92392 25.916 9.17186 22.5916 11.3479C19.2672 13.5239 16.5847 16.5489 14.822 20.1097C14.7048 20.3449 14.499 20.5239 14.2499 20.6074C14.0007 20.6909 13.7286 20.6719 13.4934 20.5548C13.2582 20.4376 13.0792 20.2318 12.9957 19.9827C12.9123 19.7335 12.9312 19.4614 13.0484 19.2262C14.9676 15.3476 17.8888 12.0525 21.5093 9.68216C25.1299 7.31178 29.3182 5.95226 33.6407 5.74435C37.9632 5.53644 42.2627 6.48771 46.094 8.49966C49.9253 10.5116 53.1492 13.5111 55.4319 17.1876C57.7146 20.8641 58.973 25.0839 59.077 29.4101C59.1809 33.7363 58.1266 38.0117 56.0231 41.7936C53.9196 45.5754 50.8435 48.7263 47.1132 50.9199C43.3829 53.1136 39.1341 54.2702 34.8066 54.2702ZM8.26814 40.7998H6.46814C6.20583 40.7998 5.95428 40.6956 5.7688 40.5102C5.58332 40.3247 5.47913 40.0731 5.47913 39.8108C5.47913 39.5485 5.58332 39.297 5.7688 39.1115C5.95428 38.926 6.20583 38.8218 6.46814 38.8218H8.26814C8.53044 38.8218 8.782 38.926 8.96747 39.1115C9.15295 39.297 9.25715 39.5485 9.25715 39.8108C9.25715 40.0731 9.15295 40.3247 8.96747 40.5102C8.782 40.6956 8.53044 40.7998 8.26814 40.7998Z" fill="white"/>
<path d="M12.6462 23.5252C12.4797 23.5233 12.3163 23.4796 12.171 23.3981C12.0258 23.3167 11.9032 23.2001 11.8147 23.0591C11.7261 22.918 11.6743 22.757 11.6641 22.5908C11.6539 22.4246 11.6855 22.2584 11.7561 22.1076L13.1275 19.2395C13.1834 19.1222 13.2618 19.017 13.3583 18.93C13.4548 18.8429 13.5675 18.7758 13.6899 18.7323C13.8124 18.6888 13.9422 18.6699 14.072 18.6766C14.2017 18.6833 14.3289 18.7155 14.4462 18.7713C14.5635 18.8272 14.6687 18.9056 14.7557 19.0021C14.8428 19.0986 14.9099 19.2113 14.9534 19.3337C14.9969 19.4562 15.0158 19.586 15.0091 19.7158C15.0024 19.8455 14.9702 19.9727 14.9144 20.09L13.5429 22.9648C13.4612 23.133 13.3337 23.2747 13.1751 23.3739C13.0165 23.473 12.8332 23.5254 12.6462 23.5252Z" fill="white"/>
</svg>
