<svg width="61" height="60" viewBox="0 0 61 60" fill="none" xmlns="http://www.w3.org/2000/svg">
<g clip-path="url(#clip0_3300_362)">
<mask id="mask0_3300_362" style="mask-type:luminance" maskUnits="userSpaceOnUse" x="0" y="0" width="61" height="60">
<path d="M59.9998 59.5V0.500175H1V59.5H59.9998Z" fill="white" stroke="white"/>
</mask>
<g mask="url(#mask0_3300_362)">
<path d="M13.8503 47.5707L12.0302 50.4493C11.3031 51.6716 11.7653 52.766 11.9992 53.1816C12.2346 53.6001 12.9379 54.5732 14.3791 54.5732" stroke="white" stroke-width="1.3" stroke-miterlimit="10" stroke-linecap="round"/>
<path d="M27.1753 14.45H19.4793C18.3952 14.45 17.5163 15.3289 17.5163 16.4129V16.4459C17.5163 17.53 18.3952 18.4088 19.4793 18.4088V31.4317L8.73922 48.4181C6.06946 52.8152 9.23504 58.4404 14.3791 58.4404H36.4559C37.099 58.4404 37.711 58.3525 38.2847 58.1901" stroke="white" stroke-width="1.3" stroke-miterlimit="10" stroke-linecap="round"/>
<path d="M37.235 40.73L31.3558 31.4315V18.4088H31.3724C32.4565 18.4088 33.3352 17.5299 33.3352 16.4458V16.4128C33.3352 15.3287 32.4565 14.4499 31.3724 14.4499H28.9332" stroke="white" stroke-width="1.3" stroke-miterlimit="10" stroke-linecap="round"/>
<path d="M35.5382 38.3203H20.0905H15.2433" stroke="white" stroke-width="1.3" stroke-miterlimit="10" stroke-linecap="round"/>
<path d="M19.4794 18.4087H31.3558" stroke="white" stroke-width="1.3" stroke-miterlimit="10" stroke-linecap="round"/>
<path d="M27.1901 24.4531H25.4249" stroke="white" stroke-width="1.3" stroke-miterlimit="10" stroke-linecap="round"/>
<path d="M25.4249 26.0938H23.6597" stroke="white" stroke-width="1.3" stroke-miterlimit="10" stroke-linecap="round"/>
<path d="M19.8602 3.1963C19.8602 4.49063 18.8109 5.54004 17.5165 5.54004C16.2221 5.54004 15.1727 4.49063 15.1727 3.1963C15.1727 1.90185 16.2221 0.852553 17.5165 0.852553C18.8109 0.852553 19.8602 1.90185 19.8602 3.1963Z" stroke="white" stroke-width="1.3" stroke-miterlimit="10" stroke-linecap="round"/>
<path d="M28.058 8.17307C28.058 9.62725 26.8791 10.8062 25.4249 10.8062C23.9708 10.8062 22.7919 9.62725 22.7919 8.17307C22.7919 6.7189 23.9708 5.54 25.4249 5.54C26.8791 5.54 28.058 6.7189 28.058 8.17307Z" stroke="white" stroke-width="1.3" stroke-miterlimit="10" stroke-linecap="round"/>
<path d="M52.1986 44.5061C52.8585 45.8497 53.2289 47.3609 53.2289 48.9588C53.2289 54.5444 48.701 59.0723 43.1156 59.0723C37.5299 59.0723 33.002 54.5444 33.002 48.9588C33.002 43.3733 37.5299 38.8453 43.1156 38.8453C46.4723 38.8453 49.4471 40.4806 51.2865 42.9981" stroke="white" stroke-width="1.3" stroke-miterlimit="10" stroke-linecap="round"/>
<path d="M38.3081 44.6411L47.6831 54.0161" stroke="white" stroke-width="1.3" stroke-miterlimit="10" stroke-linecap="round"/>
<path d="M47.6831 44.6411L38.3081 54.0161" stroke="white" stroke-width="1.3" stroke-miterlimit="10" stroke-linecap="round"/>
</g>
</g>
<defs>
<clipPath id="clip0_3300_362">
<rect width="60" height="60" fill="white" transform="translate(0.5)"/>
</clipPath>
</defs>
</svg>
